<svg xmlns="http://www.w3.org/2000/svg" width="560" height="273.3" viewBox="0 0 1050 512.5" role="img" aria-label="A box turned in space: along its own axes, left, every cell whole; along the world's, right"><style>path{stroke:#3a4c5c;stroke-width:0.7;stroke-linejoin:round;vector-effect:non-scaling-stroke;fill-rule:evenodd}.fw1{fill:#bcd6ea}.fw2{fill:#9fc1dd}.fw3{fill:#7fa6c8}.fc1{fill:#f4c294}.fc2{fill:#eda86a}.fc3{fill:#d68a47}.bd1{fill:#e6e9ec}.bd2{fill:#cfd5db}.bd3{fill:#b5bdc5}.t01,.t02,.t03{fill:#bfd3e6}.t11,.t12,.t13{fill:#e9c9a2}.t21,.t22,.t23{fill:#c8dcc4}.t31,.t32,.t33{fill:#d9cbe3}.t41,.t42,.t43{fill:#e7d9a8}.t51,.t52,.t53{fill:#c4d8da}line{stroke-linecap:round;vector-effect:non-scaling-stroke}line.ghost{stroke:#7d8b97;stroke-width:0.9;stroke-dasharray:5 4}line.ax1{stroke:#c0392b;stroke-width:2.4}line.ax2{stroke:#27864a;stroke-width:2.4}line.ax3{stroke:#2c5ea8;stroke-width:2.4}.vx{fill:#1e3a55}.og{fill:#c0392b}@media (prefers-color-scheme:dark){path{stroke:#8fa3b2}line.ghost{stroke:#9aa8b4}.fw1{fill:#3f6789}.fw2{fill:#355a7a}.fw3{fill:#2a4862}.fc1{fill:#b87036}.fc2{fill:#a8622c}.fc3{fill:#8a4f22}.bd1{fill:#56606a}.bd2{fill:#48515a}.bd3{fill:#3b434b}.t01,.t02,.t03{fill:#2f4a63}.t11,.t12,.t13{fill:#6a5136}.t21,.t22,.t23{fill:#3c5a40}.t31,.t32,.t33{fill:#4e4161}.t41,.t42,.t43{fill:#625a33}.t51,.t52,.t53{fill:#355a5d}line.ax1{stroke:#ff8a7a}line.ax2{stroke:#6fd38f}line.ax3{stroke:#7fa8ff}.vx{fill:#cfe0ee}.og{fill:#ff8a7a}}</style><path class="fw2" d="M335.3,125.7L355.6,185.5L357.3,143.9L337.1,84.1Z"/><path class="fw1" d="M357.3,143.9L447.2,132.6L427,72.9L337.1,84.1Z"/><path class="fw2" d="M231.9,138.7L252.1,198.4L253.9,156.8L233.6,97Z"/><path class="fw3" d="M355.6,185.5L445.5,174.2L447.2,132.6L357.3,143.9Z"/><path class="fw1" d="M253.9,156.8L343.8,145.5L323.6,85.8L233.6,97Z"/><path class="fw2" d="M128.4,151.6L148.7,211.3L150.4,169.7L130.2,110Z"/><path class="fw2" d="M337.3,77.9L357.6,137.6L359.3,96L339,36.2Z"/><path class="fw3" d="M252.1,198.4L342.1,187.2L343.8,145.5L253.9,156.8Z"/><path class="fw1" d="M150.4,169.7L240.4,158.5L220.1,98.7L130.2,110Z"/><path class="fw1" d="M359.3,96L449.2,84.8L429,25L339,36.2Z"/><path class="fw2" d="M25,164.5L45.2,224.3L47,182.6L26.7,122.9Z"/><path class="fw2" d="M233.9,90.8L254.1,150.5L255.8,108.9L235.6,49.2Z"/><path class="fw3" d="M148.7,211.3L238.6,200.1L240.4,158.5L150.4,169.7Z"/><path class="fw3" d="M357.6,137.6L447.5,126.4L449.2,84.8L359.3,96Z"/><path class="fw1" d="M47,182.6L136.9,171.4L116.7,111.6L26.7,122.9Z"/><path class="fw1" d="M255.8,108.9L345.8,97.7L325.5,37.9L235.6,49.2Z"/><path class="fw2" d="M358.6,194.4L378.9,254.2L380.6,212.6L360.3,152.8Z"/><path class="fw2" d="M130.4,103.7L150.7,163.5L152.4,121.8L132.1,62.1Z"/><path class="fw3" d="M45.2,224.3L135.2,213L136.9,171.4L47,182.6Z"/><path class="fw3" d="M254.1,150.5L344.1,139.3L345.8,97.7L255.8,108.9Z"/><path class="fw1" d="M380.6,212.6L470.5,201.3L450.3,141.6L360.3,152.8Z"/><path class="fw1" d="M152.4,121.8L242.3,110.6L222.1,50.9L132.1,62.1Z"/><path class="fw2" d="M255.2,207.4L275.4,267.1L277.1,225.5L256.9,165.8Z"/><path class="fw2" d="M27,116.6L47.2,176.4L48.9,134.8L28.7,75Z"/><path class="fw3" d="M378.9,254.2L468.8,243L470.5,201.3L380.6,212.6Z"/><path class="fw3" d="M150.7,163.5L240.6,152.2L242.3,110.6L152.4,121.8Z"/><path class="fw1" d="M277.1,225.5L367.1,214.3L346.8,154.5L256.9,165.8Z"/><path class="fw1" d="M48.9,134.8L138.9,123.5L118.6,63.8L28.7,75Z"/><path class="fw2" d="M151.7,220.3L172,280.1L173.7,238.4L153.4,178.7Z"/><path class="fw2" d="M360.6,146.6L380.8,206.3L382.5,164.7L362.3,105Z"/><path class="fw3" d="M275.4,267.1L365.4,255.9L367.1,214.3L277.1,225.5Z"/><path class="fw3" d="M47.2,176.4L137.2,165.2L138.9,123.5L48.9,134.8Z"/><path class="fw1" d="M173.7,238.4L263.6,227.2L243.4,167.4L153.4,178.7Z"/><path class="fw1" d="M382.5,164.7L472.5,153.5L452.3,93.7L362.3,105Z"/><path class="fw2" d="M48.3,233.2L68.5,293L70.2,251.4L50,191.6Z"/><path class="fw2" d="M257.1,159.5L277.4,219.3L279.1,177.6L258.9,117.9Z"/><path class="fw3" d="M172,280.1L261.9,268.8L263.6,227.2L173.7,238.4Z"/><path class="fw3" d="M380.8,206.3L470.8,195.1L472.5,153.5L382.5,164.7Z"/><path class="fw1" d="M70.2,251.4L160.2,240.1L139.9,180.4L50,191.6Z"/><path class="fw1" d="M279.1,177.6L369.1,166.4L348.8,106.6L258.9,117.9Z"/><path class="fw2" d="M153.7,172.4L173.9,232.2L175.7,190.6L155.4,130.8Z"/><path class="fw3" d="M68.5,293L158.5,281.7L160.2,240.1L70.2,251.4Z"/><path class="fw3" d="M277.4,219.3L367.3,208L369.1,166.4L279.1,177.6Z"/><path class="fw1" d="M175.7,190.6L265.6,179.3L245.4,119.6L155.4,130.8Z"/><path class="fw2" d="M50.3,185.4L70.5,245.1L72.2,203.5L52,143.7Z"/><path class="fw3" d="M173.9,232.2L263.9,221L265.6,179.3L175.7,190.6Z"/><path class="fw1" d="M72.2,203.5L162.2,192.3L141.9,132.5L52,143.7Z"/><path class="fw3" d="M70.5,245.1L160.4,233.9L162.2,192.3L72.2,203.5Z"/><path class="fc2" d="M930.8,283.9L925.8,306.8L966.3,324.9L966.3,296.2Z"/><path class="fc3" d="M966.3,296.2L966.3,324.9L975,316L975,288.7Z"/><path class="fc1" d="M970.9,278.9L930.8,283.9L966.3,296.2L975,288.7Z"/><path class="fc2" d="M978,300.3L978,328.9L991.8,335L991.8,305Z"/><path class="fc3" d="M820,314.5L820,343.2L845.5,316.9L842.4,295Z"/><path class="fc1" d="M991.8,305L986.7,292.7L978,300.3Z"/><path class="fc2" d="M784.5,302.2L779.5,325.1L820,343.2L820,314.5Z"/><path class="fc1" d="M842.4,295L784.5,302.2L820,314.5Z"/><path class="fc2" d="M940.1,234L930.8,277L966.3,289.3L966.3,243.1Z"/><path class="fc3" d="M966.3,243.1L966.3,289.3L975,281.7L975,235.5Z"/><path class="fc1" d="M923.4,290.4L854.1,299L831.7,318.6L909.8,345.6L958.9,302.7Z"/><path class="fc1" d="M972.7,229.9L940.1,234L966.3,243.1L975,235.5Z"/><path class="fc2" d="M978,247.1L978,293.3L991.8,298.1L991.8,251.9Z"/><path class="fc3" d="M673.7,332.8L673.7,361.4L699.2,335.2L696.1,313.2Z"/><path class="fc3" d="M909.8,345.6L909.8,381.9L958.9,331.3L958.9,302.7Z"/><path class="fc3" d="M820,261.3L820,307.6L842.4,288L836.5,247Z"/><path class="fc2" d="M638.2,320.5L633.2,343.4L673.7,361.4L673.7,332.8Z"/><path class="fc1" d="M696.1,313.2L638.2,320.5L673.7,332.8Z"/><path class="fc2" d="M793.9,252.3L784.5,295.3L820,307.6L820,261.3Z"/><path class="fc2" d="M966.3,236.1L966.3,217.6L944.3,207.8L940.1,227.1Z"/><path class="fc1" d="M991.8,251.9L986.7,239.6L978,247.1Z"/><path class="fc3" d="M975,228.6L975,208.7L966.3,217.6L966.3,236.1Z"/><path class="fc1" d="M966.3,217.6L975,208.7L973.4,204.2L944.3,207.8Z"/><path class="fc2" d="M831.7,318.6L831.7,347.2L909.8,381.9L909.8,345.6Z"/><path class="fc1" d="M777.1,308.6L707.8,317.3L685.4,336.8L763.5,363.9L812.6,320.9Z"/><path class="fc1" d="M836.5,247L793.9,252.3L820,261.3Z"/><path class="fc2" d="M991.8,244.9L991.8,227.8L978,221.7L978,240.2Z"/><path class="fc1" d="M991.8,227.8L986.7,212.8L978,221.7Z"/><path class="fc3" d="M763.5,363.9L763.5,400.2L812.6,349.6L812.6,320.9Z"/><path class="fc1" d="M932.8,240.4L848.2,251L831.7,265.4L909.8,292.4L958.9,249.5Z"/><path class="fc3" d="M909.8,292.4L909.8,338.6L958.9,295.7L958.9,249.5Z"/><path class="fc3" d="M673.7,279.6L673.7,325.8L696.1,306.3L690.2,265.2Z"/><path class="fc3" d="M836.5,240L833.8,221.7L820,235.9L820,254.4Z"/><path class="fc2" d="M647.6,270.6L638.2,313.5L673.7,325.8L673.7,279.6Z"/><path class="fc2" d="M820,254.4L820,235.9L798,226.1L793.9,245.3Z"/><path class="fc1" d="M820,235.9L833.8,221.7L798,226.1Z"/><path class="fc1" d="M1008.2,369.1L984.4,311.5L970.6,306.7L921.5,349.6L999.6,376.7Z"/><path class="fc2" d="M685.4,336.8L685.4,365.5L763.5,400.2L763.5,363.9Z"/><path class="fc2" d="M831.7,265.4L831.7,311.6L909.8,338.6L909.8,292.4Z"/><path class="fc2" d="M565.6,335.1L564.6,357.5L579.7,401.8L579.7,369.1Z"/><path class="fc1" d="M937,214.3L845.6,225.7L831.7,240L909.8,274.7L958.9,224.1Z"/><path class="fc1" d="M690.2,265.2L647.6,270.6L673.7,279.6Z"/><path class="fc1" d="M630.8,326.9L565.6,335.1L579.7,369.1L617.2,382.1L666.3,339.2Z"/><path class="fc3" d="M958.9,242.6L958.9,224.1L909.8,274.7L909.8,285.5Z"/><path class="fc3" d="M617.2,382.1L617.2,418.5L666.3,367.9L666.3,339.2Z"/><path class="fc1" d="M786.5,258.7L701.9,269.3L685.4,283.7L763.5,310.7L812.6,267.8Z"/><path class="fc2" d="M921.5,349.6L921.5,386L999.6,420.7L999.6,376.7Z"/><path class="fc3" d="M763.5,310.7L763.5,356.9L812.6,314L812.6,267.8Z"/><path class="fc3" d="M690.2,258.3L687.6,239.9L673.7,254.2L673.7,272.7Z"/><path class="fc2" d="M673.7,272.7L673.7,254.2L651.7,244.4L647.6,263.6Z"/><path class="fc1" d="M824.3,325L775.2,367.9L853.3,394.9L902.4,352Z"/><path class="fc1" d="M673.7,254.2L687.6,239.9L651.7,244.4Z"/><path class="fc2" d="M909.8,285.5L909.8,274.7L831.7,240L831.7,258.5Z"/><path class="fc2" d="M685.4,283.7L685.4,329.9L763.5,356.9L763.5,310.7Z"/><path class="fc3" d="M999.6,376.7L999.6,420.7L1008.2,411.8L1008.2,369.1Z"/><path class="fc3" d="M853.3,394.9L853.3,439L902.4,388.4L902.4,352Z"/><path class="fc1" d="M790.7,232.6L699.3,244L685.4,258.2L763.5,293L812.6,242.3Z"/><path class="fc1" d="M1008.2,315.9L984.4,258.3L970.6,253.5L921.5,296.5L999.6,323.5Z"/><path class="fc2" d="M567.3,286.1L565.6,328.1L579.7,362.2L579.7,316Z"/><path class="fc2" d="M579.7,369.1L579.7,401.8L617.2,418.5L617.2,382.1Z"/><path class="fc3" d="M812.6,260.8L812.6,242.3L763.5,293L763.5,303.8Z"/><path class="fc2" d="M775.2,367.9L775.2,404.3L853.3,439L853.3,394.9Z"/><path class="fc2" d="M1011.3,380.7L1011.3,424.8L1025,430.9L1025,385.5Z"/><path class="fc1" d="M970.6,228.1L921.5,278.7L999.6,313.5L1008.2,304.6L984.4,234.2Z"/><path class="fc3" d="M617.2,329L617.2,375.2L666.3,332.3L666.3,286.1Z"/><path class="fc1" d="M640.2,277L567.3,286.1L579.7,316L617.2,329L666.3,286.1Z"/><path class="fc2" d="M921.5,296.5L921.5,342.7L999.6,369.7L999.6,323.5Z"/><path class="fc1" d="M678.1,343.3L628.9,386.2L707,413.2L756.1,370.3Z"/><path class="fc2" d="M763.5,303.8L763.5,293L685.4,258.2L685.4,276.7Z"/><path class="fc1" d="M1025,385.5L1019.9,373.2L1011.3,380.7Z"/><path class="fc3" d="M972.5,400.3L978.3,441.4L992.2,427.2L992.2,383.1Z"/><path class="fw1" d="M824.3,271.8L775.2,314.7L853.3,341.8L902.4,298.8Z"/><path class="fc3" d="M707,413.2L707,457.3L756.1,406.7L756.1,370.3Z"/><path class="fc2" d="M579.7,309L579.7,294.5L568.1,260.4L567.3,279.2Z"/><path class="fc2" d="M572.3,375.6L572.3,408.2L586.2,449.3L586.2,409.2Z"/><path class="fc3" d="M999.6,323.5L999.6,369.7L1008.2,362.2L1008.2,315.9Z"/><path class="fc1" d="M644.4,250.8L568.1,260.4L579.7,294.5L617.2,311.2L666.3,260.6Z"/><path class="fw3" d="M853.3,341.8L853.3,388L902.4,345.1L902.4,298.8Z"/><path class="fc2" d="M579.7,316L579.7,362.2L617.2,375.2L617.2,329Z"/><path class="fc1" d="M896.3,409.8L972.5,400.3L992.2,383.1L914.1,356.1L865,399Z"/><path class="fc3" d="M984.2,404.4L990.1,445.5L1019.2,441.8L1020.9,399.8Z"/><path class="fc3" d="M666.3,279.1L666.3,260.6L617.2,311.2L617.2,322Z"/><path class="fc3" d="M586.2,409.2L586.2,449.3L609.8,424.9L609.8,388.6Z"/><path class="fc1" d="M824.3,246.4L775.2,297L853.3,331.7L902.4,281.1Z"/><path class="fc2" d="M999.6,316.6L999.6,313.5L921.5,278.7L921.5,289.5Z"/><path class="fc2" d="M628.9,386.2L628.9,422.5L707,457.3L707,413.2Z"/><path class="fc1" d="M572.3,375.6L586.2,409.2L609.8,388.6Z"/><path class="fc3" d="M896.3,409.8L886.9,452.8L978.3,441.4L972.5,400.3Z"/><path class="fc2" d="M865,399L865,443L886.9,452.8L896.3,409.8Z"/><path class="fw2" d="M775.2,314.7L775.2,361L853.3,388L853.3,341.8Z"/><path class="fc1" d="M984.2,404.4L1020.9,399.8L1017.6,391.9L1003.9,387.1Z"/><path class="fc2" d="M1011.3,327.5L1011.3,373.8L1025,378.5L1025,332.3Z"/><path class="fc3" d="M826.2,418.6L832.1,459.7L845.9,445.4L845.9,401.4Z"/><path class="fc3" d="M1008.2,309L1008.2,304.6L999.6,313.5L999.6,316.6Z"/><path class="fc3" d="M902.4,291.9L902.4,281.1L853.3,331.7L853.3,334.8Z"/><path class="fw1" d="M678.1,290.1L628.9,333L707,360L756.1,317.1Z"/><path class="fc1" d="M1025,332.3L1019.9,320L1011.3,327.5Z"/><path class="fc2" d="M617.2,322L617.2,311.2L579.7,294.5L579.7,309Z"/><path class="fw3" d="M707,360L707,406.3L756.1,363.4L756.1,317.1Z"/><path class="fc2" d="M572.3,322.4L572.3,368.6L586.2,402.3L586.2,356Z"/><path class="fc1" d="M1025,323.6L1019.9,308.6L1011.3,317.5Z"/><path class="fc3" d="M837.9,422.7L843.8,463.7L879.6,459.3L888.9,416.3Z"/><path class="fc1" d="M750,428.1L826.2,418.6L845.9,401.4L767.8,374.3L718.7,417.3Z"/><path class="fc1" d="M678.1,264.7L628.9,315.3L707,350L756.1,299.4Z"/><path class="fc2" d="M853.3,334.8L853.3,331.7L775.2,297L775.2,307.8Z"/><path class="fc3" d="M972.5,347.1L966.7,353.1L972.5,393.4L992.2,376.2L992.2,329.9Z"/><path class="fc2" d="M1025,325.4L1025,323.6L1011.3,317.5L1011.3,320.6Z"/><path class="fc3" d="M750,428.1L740.6,471.1L832.1,459.7L826.2,418.6Z"/><path class="fc3" d="M586.2,356L586.2,402.3L609.8,381.6L609.8,335.4Z"/><path class="fc2" d="M718.7,417.3L718.7,461.3L740.6,471.1L750,428.1Z"/><path class="fc1" d="M896.3,356.6L972.5,347.1L992.2,329.9L914.1,302.9L865,345.8Z"/><path class="fw2" d="M628.9,333L628.9,379.3L707,406.3L707,360Z"/><path class="fc1" d="M572.3,322.4L586.2,356L609.8,335.4Z"/><path class="fc1" d="M837.9,422.7L888.9,416.3L857.6,405.4Z"/><path class="fc3" d="M992.2,323L992.2,319.9L972.5,340.2Z"/><path class="fc1" d="M972.5,340.2L992.2,319.9L914.1,285.2L865,335.8L896.3,349.7Z"/><path class="fc3" d="M1020.9,392.8L1022.6,351.6L978.4,357.2L984.2,397.4Z"/><path class="fc3" d="M679.9,436.9L685.8,478L699.6,463.7L699.6,419.6Z"/><path class="fc1" d="M984.2,351.2L1020.9,346.6L1017.6,338.7L1003.9,334Z"/><path class="fc2" d="M597.9,413.3L597.9,453.3L609.5,487.5L611.2,445.5Z"/><path class="fc3" d="M756.1,310.2L756.1,299.4L707,350L707,353.1Z"/><path class="fc3" d="M972.5,393.4L966.7,353.1L905.5,360.8L896.3,402.9Z"/><path class="fc2" d="M586.2,349.1L586.2,342L572.3,301L572.3,315.5Z"/><path class="fc2" d="M865,345.8L865,392.1L896.3,402.9L905.5,360.8L896.3,356.6Z"/><path class="fc1" d="M611.2,445.5L679.9,436.9L699.6,419.6L621.5,392.6L597.9,413.3Z"/><path class="fc1" d="M572.3,301L586.2,342L609.8,317.7Z"/><path class="fc1" d="M1020.9,339.7L1017.6,330.1L1003.9,324L984.2,344.2Z"/><path class="fc3" d="M691.6,440.9L697.5,482L733.3,477.5L742.6,434.6Z"/><path class="fc3" d="M609.8,328.5L609.8,317.7L586.2,342L586.2,349.1Z"/><path class="fc1" d="M984.2,351.2L978.4,357.2L1022.6,351.6L1020.9,346.6Z"/><path class="fc2" d="M707,353.1L707,350L628.9,315.3L628.9,326.1Z"/><path class="fc3" d="M826.2,365.4L820.4,371.4L826.2,411.7L845.9,394.4L845.9,348.2Z"/><path class="fc3" d="M611.2,445.5L609.5,487.5L685.8,478L679.9,436.9Z"/><path class="fc2" d="M896.3,349.7L865,335.8L865,338.9Z"/><path class="fc1" d="M896.3,356.6L905.5,360.8L966.7,353.1L972.5,347.1Z"/><path class="fc1" d="M750,374.9L826.2,365.4L845.9,348.2L767.8,321.2L718.7,364.1Z"/><path class="fc1" d="M691.6,440.9L742.6,434.6L711.3,423.7Z"/><path class="fc3" d="M845.9,341.3L845.9,338.2L826.2,358.5Z"/><path class="fc3" d="M888.9,409.3L898.1,367.2L832.1,375.4L837.9,415.7Z"/><path class="fc1" d="M826.2,358.5L845.9,338.2L767.8,303.5L718.7,354.1L750,368Z"/><path class="fc1" d="M837.9,369.5L888.9,363.1L857.6,352.3Z"/><path class="fc3" d="M826.2,411.7L820.4,371.4L759.2,379L750,421.2Z"/><path class="fc2" d="M718.7,364.1L718.7,410.3L750,421.2L759.2,379L750,374.9Z"/><path class="fc1" d="M888.9,356.2L857.6,342.2L837.9,362.5Z"/><path class="fc1" d="M837.9,369.5L832.1,375.4L898.1,367.2L888.9,363.1Z"/><path class="fc1" d="M611.2,392.3L679.9,383.7L699.6,366.5L621.5,339.5L597.9,360.1Z"/><path class="fc3" d="M679.9,383.7L674.1,389.7L679.9,429.9L699.6,412.7L699.6,366.5Z"/><path class="fc2" d="M750,368L718.7,354.1L718.7,357.2Z"/><path class="fc1" d="M750,374.9L759.2,379L820.4,371.4L826.2,365.4Z"/><path class="fc2" d="M597.9,360.1L597.9,406.3L611.2,438.5L612.9,397.3L611.2,392.3Z"/><path class="fc1" d="M679.9,376.8L699.6,356.5L621.5,321.7L597.9,346.1L611.2,385.3Z"/><path class="fc2" d="M611.2,385.3L597.9,346.1L597.9,353.2Z"/><path class="fc3" d="M699.6,359.5L699.6,356.5L679.9,376.8Z"/><path class="fc3" d="M742.6,427.6L751.8,385.5L685.8,393.7L691.6,434Z"/><path class="fc1" d="M691.6,387.7L742.6,381.4L711.3,370.5Z"/><path class="fc3" d="M679.9,429.9L674.1,389.7L612.9,397.3L611.2,438.5Z"/><path class="fc1" d="M742.6,374.4L711.3,360.5L691.6,380.8Z"/><path class="fc1" d="M691.6,387.7L685.8,393.7L751.8,385.5L742.6,381.4Z"/><path class="fc1" d="M611.2,392.3L612.9,397.3L674.1,389.7L679.9,383.7Z"/></svg>