<svg xmlns="http://www.w3.org/2000/svg" width="560" height="399.8" viewBox="0 0 1050 749.7" role="img" aria-label="Two groups on an A3, GroupLayout Keep"><style>polygon{stroke:#3a4c5c;stroke-width:0.8;stroke-linejoin:round;vector-effect:non-scaling-stroke}line{stroke-linecap:round;vector-effect:non-scaling-stroke}.bx{fill:#a8c6df}.bf{fill:#eda86a}.bk{fill:#cfd5db}.gh{fill:none;stroke:#7d8b97;stroke-dasharray:5 4}.g0{fill:#bfd3e6}.g1{fill:#e9c9a2}.g2{fill:#c8dcc4}.g3{fill:#d9cbe3}.g4{fill:#e7d9a8}.g5{fill:#c4d8da}.sh{fill:#fbfbfa;stroke:#18232d;stroke-width:1.6}.us{fill:none;stroke:#7d8b97;stroke-width:0.9;stroke-dasharray:6 4}line.ld{stroke:#18232d;stroke-width:2.6}line.bl{stroke:#7d8b97;stroke-width:1.8}line.dm{stroke:#2c5ea8;stroke-width:1.3}line.rw{stroke:#9aa8b4;stroke-width:0.8;stroke-dasharray:3 4}line.cn{stroke:#5d6b77;stroke-width:1}.cd{fill:#1e3a55}.an{fill:#c0392b}text{font-family:'Segoe UI',system-ui,-apple-system,sans-serif;fill:#18232d}.dt{fill:#2c5ea8}@media (prefers-color-scheme:dark){polygon{stroke:#8fa3b2}.bx{fill:#355a7a}.bf{fill:#a8622c}.bk{fill:#48515a}.gh{stroke:#9aa8b4}.g0{fill:#2f4a63}.g1{fill:#6a5136}.g2{fill:#3c5a40}.g3{fill:#4e4161}.g4{fill:#625a33}.g5{fill:#355a5d}.sh{fill:#1d2328;stroke:#e4eaee}.us{stroke:#9aa8b4}line.ld{stroke:#e4eaee}line.bl{stroke:#9aa8b4}line.dm{stroke:#7fa8ff}line.rw{stroke:#5d6b77}line.cn{stroke:#aab6c0}.cd{fill:#cfe0ee}.an{fill:#ff8a7a}text{fill:#e4eaee}.dt{fill:#7fa8ff}}</style><polygon class="sh" points="12.3,737.4 1037.7,737.4 1037.7,12.3 12.3,12.3"/><polygon class="us" points="61.1,713 1013.3,713 1013.3,36.7 61.1,36.7"/><polygon class="g0" points="61.1,305.3 549.4,305.3 549.4,36.7 61.1,36.7"/><polygon class="g0" points="622.7,305.3 744.7,305.3 744.7,36.7 622.7,36.7"/><polygon class="g0" points="61.1,476.2 549.4,476.2 549.4,366.3 61.1,366.3"/><polygon class="g0" points="695.9,500.6 842.4,500.6 842.4,354.1 695.9,354.1"/><polygon class="g1" points="61.1,695.9 305.3,695.9 305.3,549.4 61.1,549.4"/><polygon class="g1" points="354.1,695.9 476.2,695.9 476.2,549.4 354.1,549.4"/></svg>
